<svg width="77" height="47" viewBox="0 0 77 47" fill="none" xmlns="http://www.w3.org/2000/svg">
<path d="M44.9165 7.55682C44.9165 8.80624 45.929 9.8187 47.1784 9.8187H55.7606C56.7687 9.8187 57.2728 11.038 56.5598 11.7488L45.5778 22.7308C45.1535 23.1551 44.9144 23.7303 44.9144 24.3313V28.086C44.9144 29.6478 46.4632 30.7314 47.8333 29.986C49.2292 29.2277 50.5281 28.3101 51.7021 27.2588C52.1674 26.8431 52.8826 26.8388 53.3242 27.2825L61.3226 35.281C61.7643 35.7226 61.7664 36.4399 61.3097 36.8664C55.2436 42.5427 47.0901 46.0195 38.1266 46.0195C29.1631 46.0195 21.0096 42.5427 14.9434 36.8664C14.4867 36.4399 14.4889 35.7226 14.9305 35.281L22.9289 27.2825C23.3705 26.8409 24.0857 26.8431 24.551 27.2588C25.725 28.3101 27.024 29.2277 28.4199 29.986C29.7921 30.7314 31.3388 29.6478 31.3388 28.086V24.3313C31.3388 23.7303 31.0997 23.1551 30.6753 22.7308L19.6934 11.7488C18.9803 11.0358 19.4844 9.8187 20.4926 9.8187H29.0748C30.3242 9.8187 31.3366 8.80624 31.3366 7.55682V1.89998C31.3366 1.27527 31.8429 0.769043 32.4676 0.769043H43.7791C44.4038 0.769043 44.9101 1.27527 44.9101 1.89998V7.55682H44.9165Z" fill="#08060E"/>
<mask id="mask0_4031_15662" style="mask-type:alpha" maskUnits="userSpaceOnUse" x="14" y="0" width="48" height="47">
<path d="M44.9165 7.55585C44.9165 8.80526 45.929 9.81772 47.1784 9.81772H55.7606C56.7687 9.81772 57.2728 11.037 56.5598 11.7479L45.5778 22.7298C45.1535 23.1542 44.9144 23.7293 44.9144 24.3303V28.0851C44.9144 29.6468 46.4632 30.7304 47.8333 29.985C49.2292 29.2268 50.5281 28.3091 51.7021 27.2579C52.1674 26.8421 52.8826 26.8378 53.3242 27.2816L61.3226 35.28C61.7643 35.7216 61.7664 36.4389 61.3097 36.8654C55.2436 42.5417 47.0901 46.0185 38.1266 46.0185C29.1631 46.0185 21.0096 42.5417 14.9434 36.8654C14.4867 36.4389 14.4889 35.7216 14.9305 35.28L22.9289 27.2816C23.3705 26.84 24.0857 26.8421 24.551 27.2579C25.725 28.3091 27.024 29.2268 28.4199 29.985C29.7921 30.7304 31.3388 29.6468 31.3388 28.0851V24.3303C31.3388 23.7293 31.0997 23.1542 30.6753 22.7298L19.6934 11.7479C18.9803 11.0348 19.4844 9.81772 20.4926 9.81772H29.0748C30.3242 9.81772 31.3366 8.80526 31.3366 7.55585V1.899C31.3366 1.2743 31.8429 0.768066 32.4676 0.768066H43.7791C44.4038 0.768066 44.9101 1.2743 44.9101 1.899V7.55585H44.9165Z" fill="#D9D9D9"/>
</mask>
<g mask="url(#mask0_4031_15662)">
<g filter="url(#filter0_f_4031_15662)">
<ellipse cx="4.61781" cy="21.5008" rx="4.61781" ry="21.5008" transform="matrix(0 -1 -1 0 59.4985 51.3618)" fill="#08060E"/>
</g>
<g filter="url(#filter1_f_4031_15662)">
<ellipse cx="4.61781" cy="21.5008" rx="4.61781" ry="21.5008" transform="matrix(-0.369097 -0.929391 -0.929391 0.369097 77.8701 41.1355)" fill="#08060E"/>
</g>
<g filter="url(#filter2_f_4031_15662)">
<ellipse cx="19.8014" cy="44.7796" rx="4.61781" ry="21.5008" transform="rotate(-68.3401 19.8014 44.7796)" fill="#08060E"/>
</g>
<g filter="url(#filter3_f_4031_15662)">
<ellipse cx="46.5276" cy="29.6599" rx="3.71516" ry="6.26821" transform="rotate(-135.197 46.5276 29.6599)" fill="#08060E"/>
</g>
<g filter="url(#filter4_f_4031_15662)">
<ellipse cx="48.4426" cy="26.2133" rx="3.71516" ry="6.26821" transform="rotate(-135.197 48.4426 26.2133)" fill="#08060E"/>
</g>
<g filter="url(#filter5_f_4031_15662)">
<ellipse cx="48.0593" cy="7.06514" rx="3.71516" ry="6.26821" transform="rotate(-135.197 48.0593 7.06514)" fill="#08060E"/>
</g>
<g filter="url(#filter6_f_4031_15662)">
<ellipse cx="49.2083" cy="5.53341" rx="3.71516" ry="6.26821" transform="rotate(-135.197 49.2083 5.53341)" fill="#08060E"/>
</g>
<g filter="url(#filter7_f_4031_15662)">
<ellipse cx="3.71516" cy="6.26821" rx="3.71516" ry="6.26821" transform="matrix(0.709532 -0.704673 -0.704673 -0.709532 31.8413 37.4912)" fill="#08060E"/>
</g>
<g filter="url(#filter8_f_4031_15662)">
<ellipse cx="3.71516" cy="6.26821" rx="3.71516" ry="6.26821" transform="matrix(0.709532 -0.704673 -0.704673 -0.709532 29.1602 34.0449)" fill="#08060E"/>
</g>
<g filter="url(#filter9_f_4031_15662)">
<ellipse cx="3.71516" cy="6.26821" rx="3.71516" ry="6.26821" transform="matrix(0.709532 -0.704673 -0.704673 -0.709532 29.1602 14.1306)" fill="#08060E"/>
</g>
<g filter="url(#filter10_f_4031_15662)">
<ellipse cx="3.71516" cy="6.26821" rx="3.71516" ry="6.26821" transform="matrix(0.709532 -0.704673 -0.704673 -0.709532 28.7778 11.833)" fill="#08060E"/>
</g>
<g filter="url(#filter11_f_4031_15662)">
<ellipse cx="3.71516" cy="11.949" rx="3.71516" ry="11.949" transform="matrix(0.709532 -0.704673 -0.704673 -0.709532 29.5435 29.4492)" fill="#08060E"/>
</g>
<g filter="url(#filter12_f_4031_15662)">
<ellipse cx="53.5947" cy="15.2893" rx="3.71516" ry="11.949" transform="rotate(-135.197 53.5947 15.2893)" fill="#08060E"/>
</g>
<g filter="url(#filter13_f_4031_15662)">
<ellipse cx="4.61781" cy="21.5008" rx="4.61781" ry="21.5008" transform="matrix(0 -1 -1 0 59.4985 53.2766)" fill="#08060E"/>
</g>
</g>
<path d="M6.91893 0C-2.27936 13.1663 -2.33322 33.5748 6.91893 46.7885H13.1337C3.88372 33.5748 3.93757 13.1663 13.1337 0H6.91893Z" fill="#08060E"/>
<path d="M69.3407 0H63.126C72.3243 13.1663 72.3781 33.5748 63.126 46.7885H69.3407C78.5907 33.5748 78.5369 13.1663 69.3407 0Z" fill="#08060E"/>
<defs>
<filter id="filter0_f_4031_15662" x="7.30596" y="32.9351" width="61.3837" height="27.6178" filterUnits="userSpaceOnUse" color-interpolation-filters="sRGB">
<feFlood flood-opacity="0" result="BackgroundImageFix"/>
<feBlend mode="normal" in="SourceGraphic" in2="BackgroundImageFix" result="shape"/>
<feGaussianBlur stdDeviation="4.59556" result="effect1_foregroundBlur_4031_15662"/>
</filter>
<filter id="filter1_f_4031_15662" x="26.9354" y="26.5647" width="58.495" height="36.4298" filterUnits="userSpaceOnUse" color-interpolation-filters="sRGB">
<feFlood flood-opacity="0" result="BackgroundImageFix"/>
<feBlend mode="normal" in="SourceGraphic" in2="BackgroundImageFix" result="shape"/>
<feGaussianBlur stdDeviation="4.59556" result="effect1_foregroundBlur_4031_15662"/>
</filter>
<filter id="filter2_f_4031_15662" x="-9.446" y="26.5647" width="58.495" height="36.4298" filterUnits="userSpaceOnUse" color-interpolation-filters="sRGB">
<feFlood flood-opacity="0" result="BackgroundImageFix"/>
<feBlend mode="normal" in="SourceGraphic" in2="BackgroundImageFix" result="shape"/>
<feGaussianBlur stdDeviation="4.59556" result="effect1_foregroundBlur_4031_15662"/>
</filter>
<filter id="filter3_f_4031_15662" x="32.1917" y="15.3072" width="28.6718" height="28.7055" filterUnits="userSpaceOnUse" color-interpolation-filters="sRGB">
<feFlood flood-opacity="0" result="BackgroundImageFix"/>
<feBlend mode="normal" in="SourceGraphic" in2="BackgroundImageFix" result="shape"/>
<feGaussianBlur stdDeviation="4.59556" result="effect1_foregroundBlur_4031_15662"/>
</filter>
<filter id="filter4_f_4031_15662" x="34.1067" y="11.8606" width="28.6718" height="28.7055" filterUnits="userSpaceOnUse" color-interpolation-filters="sRGB">
<feFlood flood-opacity="0" result="BackgroundImageFix"/>
<feBlend mode="normal" in="SourceGraphic" in2="BackgroundImageFix" result="shape"/>
<feGaussianBlur stdDeviation="4.59556" result="effect1_foregroundBlur_4031_15662"/>
</filter>
<filter id="filter5_f_4031_15662" x="33.7234" y="-7.28755" width="28.6718" height="28.7055" filterUnits="userSpaceOnUse" color-interpolation-filters="sRGB">
<feFlood flood-opacity="0" result="BackgroundImageFix"/>
<feBlend mode="normal" in="SourceGraphic" in2="BackgroundImageFix" result="shape"/>
<feGaussianBlur stdDeviation="4.59556" result="effect1_foregroundBlur_4031_15662"/>
</filter>
<filter id="filter6_f_4031_15662" x="34.8724" y="-8.81929" width="28.6718" height="28.7055" filterUnits="userSpaceOnUse" color-interpolation-filters="sRGB">
<feFlood flood-opacity="0" result="BackgroundImageFix"/>
<feBlend mode="normal" in="SourceGraphic" in2="BackgroundImageFix" result="shape"/>
<feGaussianBlur stdDeviation="4.59556" result="effect1_foregroundBlur_4031_15662"/>
</filter>
<filter id="filter7_f_4031_15662" x="15.7244" y="16.073" width="28.6718" height="28.7055" filterUnits="userSpaceOnUse" color-interpolation-filters="sRGB">
<feFlood flood-opacity="0" result="BackgroundImageFix"/>
<feBlend mode="normal" in="SourceGraphic" in2="BackgroundImageFix" result="shape"/>
<feGaussianBlur stdDeviation="4.59556" result="effect1_foregroundBlur_4031_15662"/>
</filter>
<filter id="filter8_f_4031_15662" x="13.0433" y="12.6268" width="28.6718" height="28.7055" filterUnits="userSpaceOnUse" color-interpolation-filters="sRGB">
<feFlood flood-opacity="0" result="BackgroundImageFix"/>
<feBlend mode="normal" in="SourceGraphic" in2="BackgroundImageFix" result="shape"/>
<feGaussianBlur stdDeviation="4.59556" result="effect1_foregroundBlur_4031_15662"/>
</filter>
<filter id="filter9_f_4031_15662" x="13.0433" y="-7.28755" width="28.6718" height="28.7055" filterUnits="userSpaceOnUse" color-interpolation-filters="sRGB">
<feFlood flood-opacity="0" result="BackgroundImageFix"/>
<feBlend mode="normal" in="SourceGraphic" in2="BackgroundImageFix" result="shape"/>
<feGaussianBlur stdDeviation="4.59556" result="effect1_foregroundBlur_4031_15662"/>
</filter>
<filter id="filter10_f_4031_15662" x="12.6609" y="-9.58516" width="28.6718" height="28.7055" filterUnits="userSpaceOnUse" color-interpolation-filters="sRGB">
<feFlood flood-opacity="0" result="BackgroundImageFix"/>
<feBlend mode="normal" in="SourceGraphic" in2="BackgroundImageFix" result="shape"/>
<feGaussianBlur stdDeviation="4.59556" result="effect1_foregroundBlur_4031_15662"/>
</filter>
<filter id="filter11_f_4031_15662" x="5.74248" y="0.286426" width="36.0336" height="36.1332" filterUnits="userSpaceOnUse" color-interpolation-filters="sRGB">
<feFlood flood-opacity="0" result="BackgroundImageFix"/>
<feBlend mode="normal" in="SourceGraphic" in2="BackgroundImageFix" result="shape"/>
<feGaussianBlur stdDeviation="4.59556" result="effect1_foregroundBlur_4031_15662"/>
</filter>
<filter id="filter12_f_4031_15662" x="35.5779" y="-2.7773" width="36.0336" height="36.1332" filterUnits="userSpaceOnUse" color-interpolation-filters="sRGB">
<feFlood flood-opacity="0" result="BackgroundImageFix"/>
<feBlend mode="normal" in="SourceGraphic" in2="BackgroundImageFix" result="shape"/>
<feGaussianBlur stdDeviation="4.59556" result="effect1_foregroundBlur_4031_15662"/>
</filter>
<filter id="filter13_f_4031_15662" x="7.30596" y="34.8499" width="61.3837" height="27.6178" filterUnits="userSpaceOnUse" color-interpolation-filters="sRGB">
<feFlood flood-opacity="0" result="BackgroundImageFix"/>
<feBlend mode="normal" in="SourceGraphic" in2="BackgroundImageFix" result="shape"/>
<feGaussianBlur stdDeviation="4.59556" result="effect1_foregroundBlur_4031_15662"/>
</filter>
</defs>
</svg>
