<svg width="270" height="47" viewBox="0 0 270 47" fill="none" xmlns="http://www.w3.org/2000/svg">
<path d="M233.768 45.7093C233.105 46.5537 231.748 46.0841 231.748 45.0113V34.7079C231.748 33.4585 230.735 32.4461 229.486 32.4461H218.11C217.19 32.4461 216.653 31.4056 217.19 30.6581L224.669 20.1867C225.74 18.6895 224.669 16.6086 222.827 16.6086H209.06C208.14 16.6086 207.604 15.5682 208.14 14.8207L217.836 1.2451C218.049 0.947821 218.392 0.771179 218.756 0.771179H247.65C248.57 0.771179 249.106 1.81164 248.57 2.55914L241.09 13.0305C240.02 14.5277 241.09 16.6086 242.932 16.6086H254.308C255.252 16.6086 255.782 17.6965 255.198 18.4397L233.771 45.7114L233.768 45.7093Z" fill="white"/>
<mask id="mask0_2002_16345" style="mask-type:alpha" maskUnits="userSpaceOnUse" x="207" y="0" width="49" height="47">
<path d="M233.664 45.7091C233 46.5535 231.643 46.0839 231.643 45.0111V34.7077C231.643 33.4583 230.631 32.4459 229.381 32.4459H218.005C217.085 32.4459 216.549 31.4054 217.085 30.6579L224.565 20.1865C225.635 18.6894 224.565 16.6084 222.723 16.6084H208.956C208.036 16.6084 207.499 15.568 208.036 14.8205L217.732 1.24491C217.945 0.947638 218.287 0.770996 218.651 0.770996H247.545C248.465 0.770996 249.002 1.81146 248.465 2.55895L240.986 13.0304C239.915 14.5275 240.986 16.6084 242.828 16.6084H254.204C255.147 16.6084 255.677 17.6963 255.094 18.4395L233.666 45.7112L233.664 45.7091Z" fill="black"/>
</mask>
<g mask="url(#mask0_2002_16345)">
<g filter="url(#filter0_f_2002_16345)">
<ellipse cx="5.50802" cy="14.7043" rx="5.50802" ry="14.7043" transform="matrix(0.00324134 0.999995 0.999995 -0.00324134 203.354 32.2867)" fill="white"/>
</g>
<g filter="url(#filter1_f_2002_16345)">
<ellipse cx="10.3995" cy="29.8514" rx="10.3995" ry="29.8514" transform="matrix(0.00324134 0.999995 0.999995 -0.00324134 168.494 8.65372)" fill="white"/>
</g>
<g filter="url(#filter2_f_2002_16345)">
<ellipse cx="5.50802" cy="30.4868" rx="5.50802" ry="30.4868" transform="matrix(0.00324134 0.999995 0.999995 -0.00324134 167.355 12.0921)" fill="white"/>
</g>
<g filter="url(#filter3_f_2002_16345)">
<ellipse cx="5.50802" cy="30.5986" rx="5.50802" ry="30.5986" transform="matrix(0.00324134 0.999995 0.999995 -0.00324134 171.95 30.0914)" fill="white"/>
</g>
<g filter="url(#filter4_f_2002_16345)">
<ellipse cx="5.50802" cy="30.5986" rx="5.50802" ry="30.5986" transform="matrix(0.00324134 0.999995 0.999995 -0.00324134 173.482 31.2403)" fill="white"/>
</g>
<g filter="url(#filter5_f_2002_16345)">
<ellipse cx="14.0715" cy="22.0783" rx="14.0715" ry="22.0783" transform="matrix(0.0584509 -0.99829 -0.99829 -0.0584509 282.171 27.6343)" fill="white"/>
</g>
<g filter="url(#filter6_f_2002_16345)">
<ellipse cx="3.47034" cy="21.5008" rx="3.47034" ry="21.5008" transform="matrix(-0.0172986 -0.99985 -0.99985 0.0172986 283.617 18.8336)" fill="white"/>
</g>
<g filter="url(#filter7_f_2002_16345)">
<ellipse cx="3.47034" cy="21.5008" rx="3.47034" ry="21.5008" transform="matrix(-0.0172986 -0.99985 -0.99985 0.0172986 283.617 18.8336)" fill="white"/>
</g>
<g filter="url(#filter8_f_2002_16345)">
<ellipse cx="208.21" cy="9.74256" rx="4.40666" ry="29.1076" transform="rotate(39.5103 208.21 9.74256)" fill="white"/>
</g>
<g filter="url(#filter9_f_2002_16345)">
<ellipse cx="255.345" cy="-5.32068" rx="4.40666" ry="29.1076" transform="rotate(37.8923 255.345 -5.32068)" fill="white"/>
</g>
<g filter="url(#filter10_f_2002_16345)">
<ellipse cx="249.235" cy="7.10447" rx="5.9715" ry="9.66515" transform="rotate(37.8923 249.235 7.10447)" fill="white"/>
</g>
<g filter="url(#filter11_f_2002_16345)">
<ellipse cx="205.944" cy="39.103" rx="4.40666" ry="29.1076" transform="rotate(37.8923 205.944 39.103)" fill="white"/>
</g>
<g filter="url(#filter12_f_2002_16345)">
<ellipse cx="205.944" cy="39.103" rx="4.40666" ry="29.1076" transform="rotate(37.8923 205.944 39.103)" fill="white"/>
</g>
<g filter="url(#filter13_f_2002_16345)">
<ellipse cx="243.474" cy="30.6778" rx="4.40666" ry="29.1076" transform="rotate(37.8923 243.474 30.6778)" fill="white"/>
</g>
<g filter="url(#filter14_f_2002_16345)">
<ellipse cx="246.241" cy="33.1709" rx="5.9715" ry="15.2974" transform="rotate(37.8923 246.241 33.1709)" fill="white"/>
</g>
</g>
<path d="M200.536 0C191.338 13.1663 191.284 33.5749 200.536 46.7885H206.751C197.501 33.5749 197.555 13.1663 206.751 0H200.536Z" fill="white"/>
<path d="M262.959 6.10352e-05H256.745C265.943 13.1663 265.997 33.5749 256.745 46.7886H262.959C272.209 33.5749 272.156 13.1663 262.959 6.10352e-05Z" fill="white"/>
<path d="M28.499 33.346L40.2607 0.775696H56.3525L38.5156 46.013H17.8359L0 0.775696H16.5439L28.499 33.346ZM77.2266 46.013H61.7168V0.775696H77.2266V46.013ZM133.559 11.8909H116.174V46.013H100.664V11.8909H83.2803V0.775696H133.559V11.8909ZM184.268 11.762H155.121V17.8362H183.815V28.4993H155.121V35.0267H185.107V46.013H139.611V0.775696H184.268V11.762Z" fill="white"/>
<defs>
<filter id="filter0_f_2002_16345" x="188.053" y="16.9203" width="60.0452" height="41.6535" filterUnits="userSpaceOnUse" color-interpolation-filters="sRGB">
<feFlood flood-opacity="0" result="BackgroundImageFix"/>
<feBlend mode="normal" in="SourceGraphic" in2="BackgroundImageFix" result="shape"/>
<feGaussianBlur stdDeviation="7.65926" result="effect1_foregroundBlur_2002_16345"/>
</filter>
<filter id="filter1_f_2002_16345" x="153.209" y="-6.76203" width="90.3397" height="51.4368" filterUnits="userSpaceOnUse" color-interpolation-filters="sRGB">
<feFlood flood-opacity="0" result="BackgroundImageFix"/>
<feBlend mode="normal" in="SourceGraphic" in2="BackgroundImageFix" result="shape"/>
<feGaussianBlur stdDeviation="7.65926" result="effect1_foregroundBlur_2002_16345"/>
</filter>
<filter id="filter2_f_2002_16345" x="158.182" y="2.80129" width="79.3554" height="29.4" filterUnits="userSpaceOnUse" color-interpolation-filters="sRGB">
<feFlood flood-opacity="0" result="BackgroundImageFix"/>
<feBlend mode="normal" in="SourceGraphic" in2="BackgroundImageFix" result="shape"/>
<feGaussianBlur stdDeviation="4.59556" result="effect1_foregroundBlur_2002_16345"/>
</filter>
<filter id="filter3_f_2002_16345" x="162.777" y="20.8002" width="79.579" height="29.4" filterUnits="userSpaceOnUse" color-interpolation-filters="sRGB">
<feFlood flood-opacity="0" result="BackgroundImageFix"/>
<feBlend mode="normal" in="SourceGraphic" in2="BackgroundImageFix" result="shape"/>
<feGaussianBlur stdDeviation="4.59556" result="effect1_foregroundBlur_2002_16345"/>
</filter>
<filter id="filter4_f_2002_16345" x="164.309" y="21.9491" width="79.579" height="29.4" filterUnits="userSpaceOnUse" color-interpolation-filters="sRGB">
<feFlood flood-opacity="0" result="BackgroundImageFix"/>
<feBlend mode="normal" in="SourceGraphic" in2="BackgroundImageFix" result="shape"/>
<feGaussianBlur stdDeviation="4.59556" result="effect1_foregroundBlur_2002_16345"/>
</filter>
<filter id="filter5_f_2002_16345" x="223.578" y="-17.1296" width="74.7493" height="58.852" filterUnits="userSpaceOnUse" color-interpolation-filters="sRGB">
<feFlood flood-opacity="0" result="BackgroundImageFix"/>
<feBlend mode="normal" in="SourceGraphic" in2="BackgroundImageFix" result="shape"/>
<feGaussianBlur stdDeviation="7.65926" result="effect1_foregroundBlur_2002_16345"/>
</filter>
<filter id="filter6_f_2002_16345" x="231.37" y="3.05468" width="61.3773" height="25.3622" filterUnits="userSpaceOnUse" color-interpolation-filters="sRGB">
<feFlood flood-opacity="0" result="BackgroundImageFix"/>
<feBlend mode="normal" in="SourceGraphic" in2="BackgroundImageFix" result="shape"/>
<feGaussianBlur stdDeviation="4.59556" result="effect1_foregroundBlur_2002_16345"/>
</filter>
<filter id="filter7_f_2002_16345" x="231.37" y="3.05468" width="61.3773" height="25.3622" filterUnits="userSpaceOnUse" color-interpolation-filters="sRGB">
<feFlood flood-opacity="0" result="BackgroundImageFix"/>
<feBlend mode="normal" in="SourceGraphic" in2="BackgroundImageFix" result="shape"/>
<feGaussianBlur stdDeviation="4.59556" result="effect1_foregroundBlur_2002_16345"/>
</filter>
<filter id="filter8_f_2002_16345" x="180.187" y="-22.0821" width="56.0453" height="63.6493" filterUnits="userSpaceOnUse" color-interpolation-filters="sRGB">
<feFlood flood-opacity="0" result="BackgroundImageFix"/>
<feBlend mode="normal" in="SourceGraphic" in2="BackgroundImageFix" result="shape"/>
<feGaussianBlur stdDeviation="4.59556" result="effect1_foregroundBlur_2002_16345"/>
</filter>
<filter id="filter9_f_2002_16345" x="227.938" y="-37.6437" width="54.8139" height="64.646" filterUnits="userSpaceOnUse" color-interpolation-filters="sRGB">
<feFlood flood-opacity="0" result="BackgroundImageFix"/>
<feBlend mode="normal" in="SourceGraphic" in2="BackgroundImageFix" result="shape"/>
<feGaussianBlur stdDeviation="4.59556" result="effect1_foregroundBlur_2002_16345"/>
</filter>
<filter id="filter10_f_2002_16345" x="232.464" y="-10.552" width="33.5414" height="35.3129" filterUnits="userSpaceOnUse" color-interpolation-filters="sRGB">
<feFlood flood-opacity="0" result="BackgroundImageFix"/>
<feBlend mode="normal" in="SourceGraphic" in2="BackgroundImageFix" result="shape"/>
<feGaussianBlur stdDeviation="4.59556" result="effect1_foregroundBlur_2002_16345"/>
</filter>
<filter id="filter11_f_2002_16345" x="178.536" y="6.78002" width="54.8139" height="64.646" filterUnits="userSpaceOnUse" color-interpolation-filters="sRGB">
<feFlood flood-opacity="0" result="BackgroundImageFix"/>
<feBlend mode="normal" in="SourceGraphic" in2="BackgroundImageFix" result="shape"/>
<feGaussianBlur stdDeviation="4.59556" result="effect1_foregroundBlur_2002_16345"/>
</filter>
<filter id="filter12_f_2002_16345" x="178.536" y="6.78002" width="54.8139" height="64.646" filterUnits="userSpaceOnUse" color-interpolation-filters="sRGB">
<feFlood flood-opacity="0" result="BackgroundImageFix"/>
<feBlend mode="normal" in="SourceGraphic" in2="BackgroundImageFix" result="shape"/>
<feGaussianBlur stdDeviation="4.59556" result="effect1_foregroundBlur_2002_16345"/>
</filter>
<filter id="filter13_f_2002_16345" x="216.067" y="-1.64518" width="54.8139" height="64.646" filterUnits="userSpaceOnUse" color-interpolation-filters="sRGB">
<feFlood flood-opacity="0" result="BackgroundImageFix"/>
<feBlend mode="normal" in="SourceGraphic" in2="BackgroundImageFix" result="shape"/>
<feGaussianBlur stdDeviation="4.59556" result="effect1_foregroundBlur_2002_16345"/>
</filter>
<filter id="filter14_f_2002_16345" x="226.536" y="11.3595" width="39.4091" height="43.6229" filterUnits="userSpaceOnUse" color-interpolation-filters="sRGB">
<feFlood flood-opacity="0" result="BackgroundImageFix"/>
<feBlend mode="normal" in="SourceGraphic" in2="BackgroundImageFix" result="shape"/>
<feGaussianBlur stdDeviation="4.59556" result="effect1_foregroundBlur_2002_16345"/>
</filter>
</defs>
</svg>
